<svg xmlns="http://www.w3.org/2000/svg" xmlns:xlink="http://www.w3.org/1999/xlink" width="1366" zoomAndPan="magnify" viewBox="0 0 1024.5 576" height="768" preserveAspectRatio="xMidYMid meet" version="1.0"><defs><filter x="0%" y="0%" width="100%" height="100%" id="d34512d166"><feColorMatrix values="0 0 0 0 1 0 0 0 0 1 0 0 0 0 1 0 0 0 1 0" color-interpolation-filters="sRGB"/></filter><clipPath id="7bc13487ed"><path d="M 0 0.140625 L 1024 0.140625 L 1024 575.859375 L 0 575.859375 Z M 0 0.140625 " clip-rule="nonzero"/></clipPath><clipPath id="7b783f7482"><path d="M 243 0.140625 L 1024 0.140625 L 1024 575.859375 L 243 575.859375 Z M 243 0.140625 " clip-rule="nonzero"/></clipPath><mask id="ce814195ef"><g filter="url(#d34512d166)"><rect x="-102.45" width="1229.4" fill="#000000" y="-57.6" height="691.2" fill-opacity="0.92"/></g></mask><clipPath id="1f70b832ec"><path d="M 236 223 L 781 223 L 781 575.859375 L 236 575.859375 Z M 236 223 " clip-rule="nonzero"/></clipPath><clipPath id="a77cad84ac"><path d="M 444 0.140625 L 781 0.140625 L 781 416 L 444 416 Z M 444 0.140625 " clip-rule="nonzero"/></clipPath><clipPath id="bbc9b19fb9"><path d="M 1.214844 160 L 651 160 L 651 575.859375 L 1.214844 575.859375 Z M 1.214844 160 " clip-rule="nonzero"/></clipPath><clipPath id="08698b9e46"><rect x="0" width="781" y="0" height="576"/></clipPath></defs><g clip-path="url(#7bc13487ed)"><path fill="#ffffff" d="M 0 0.140625 L 1024 0.140625 L 1024 575.859375 L 0 575.859375 Z M 0 0.140625 " fill-opacity="1" fill-rule="nonzero"/><path fill="#ffffff" d="M 0 0.140625 L 1024 0.140625 L 1024 575.859375 L 0 575.859375 Z M 0 0.140625 " fill-opacity="1" fill-rule="nonzero"/></g><g clip-path="url(#7b783f7482)"><g mask="url(#ce814195ef)"><g transform="matrix(1, 0, 0, 1, 243, 0.000000000000055289)"><g clip-path="url(#08698b9e46)"><g clip-path="url(#1f70b832ec)"><path fill="#249c64" d="M 789.03125 627.660156 L 789.03125 223.40625 C 752.292969 275.238281 705.746094 320.167969 652.195312 354.398438 C 564.003906 410.742188 459.988281 437.894531 370.011719 491.375 C 315.3125 523.882812 264.539062 571.800781 236.40625 627.660156 Z M 789.03125 627.660156 " fill-opacity="1" fill-rule="nonzero"/></g><g clip-path="url(#a77cad84ac)"><path fill="#245697" d="M 789.03125 148.589844 L 789.03125 -13.746094 C 781.183594 -2.867188 773.914062 8.386719 767.226562 20.015625 C 737.625 71.273438 717.503906 127.480469 688.988281 179.359375 C 633.105469 281.085938 548.964844 365.277344 444.136719 415.113281 C 586.972656 373.589844 712.234375 275.785156 789.03125 148.589844 Z M 789.03125 148.589844 " fill-opacity="1" fill-rule="nonzero"/></g><g clip-path="url(#bbc9b19fb9)"><path fill="#748f9d" d="M 149.527344 627.660156 C 182.898438 567.636719 230.941406 515.710938 288.90625 478.84375 C 349.894531 440.050781 420.1875 417.820312 481.398438 379.402344 C 563.980469 327.554688 620.199219 253.277344 650.605469 160.644531 C 646.03125 170.097656 641.136719 179.378906 635.917969 188.492188 C 630.699219 197.605469 625.171875 206.523438 619.335938 215.253906 C 613.5 223.980469 607.367188 232.5 600.9375 240.800781 C 594.507812 249.105469 587.800781 257.175781 580.8125 265.011719 C 573.824219 272.851562 566.574219 280.4375 559.058594 287.769531 C 551.542969 295.105469 543.785156 302.171875 535.777344 308.964844 C 527.773438 315.761719 519.542969 322.273438 511.085938 328.496094 C 502.628906 334.722656 493.964844 340.644531 485.097656 346.269531 C 425.191406 384.101562 357.417969 407.246094 290.621094 430.882812 C 223.828125 454.519531 156.457031 479.457031 98.511719 520.234375 C 58.691406 548.261719 23.394531 584.894531 0.90625 627.660156 Z M 149.527344 627.660156 " fill-opacity="1" fill-rule="nonzero"/></g></g></g></g></g></svg>